<svg width="20" height="18" viewBox="0 0 20 18" fill="none" xmlns="http://www.w3.org/2000/svg">
<path fill-rule="evenodd" clip-rule="evenodd" d="M18.2622 9.62587V9.62283C18.7617 9.10016 19.1546 8.48461 19.4183 7.81059C19.6973 7.09754 19.8257 6.33447 19.7955 5.56937C19.7652 4.80428 19.577 4.05372 19.2427 3.36489C18.9083 2.67606 18.435 2.06386 17.8526 1.56681C17.2702 1.06975 16.5912 0.698586 15.8584 0.476657C15.1256 0.254727 14.3548 0.186834 13.5944 0.277246C12.8341 0.367659 12.1007 0.614421 11.4404 1.00201C10.8936 1.32293 10.4068 1.73463 10.0002 2.21856C9.5937 1.73463 9.10684 1.32293 8.5601 1.00201C7.89976 0.614421 7.16636 0.367659 6.40603 0.277246C5.64569 0.186834 4.87488 0.254727 4.14206 0.476657C3.40923 0.698586 2.73026 1.06975 2.14784 1.56681C1.56542 2.06386 1.09214 2.67606 0.757789 3.36489C0.423434 4.05372 0.235228 4.80428 0.205008 5.56937C0.174788 6.33447 0.303208 7.09754 0.582192 7.81059C0.861175 8.52365 1.28471 9.17129 1.82611 9.71273L10.0002 17.8858L18.2622 9.62587ZM3.04423 8.66733L10.0002 15.6243L17.0441 8.57848C17.4422 8.18027 17.7506 7.70153 17.9485 7.17438C18.1465 6.64723 18.2294 6.08385 18.1918 5.52202C18.1542 4.96018 17.9969 4.41288 17.7305 3.91681C17.4641 3.42074 17.0947 2.98736 16.647 2.64574C16.1994 2.30413 15.6839 2.06216 15.1351 1.93607C14.5863 1.80999 14.0169 1.80269 13.4651 1.91467C12.9132 2.02666 12.3917 2.25534 11.9355 2.58537C11.4792 2.91541 11.0989 3.33918 10.8198 3.82826L10.7335 3.97959H9.267L9.18066 3.82826C8.90161 3.33918 8.52121 2.91541 8.06498 2.58537C7.60875 2.25534 7.08722 2.02666 6.53538 1.91467C5.98354 1.80269 5.41413 1.80999 4.86534 1.93607C4.31654 2.06216 3.80105 2.30413 3.35343 2.64574C2.9058 2.98736 2.53639 3.42074 2.26996 3.91681C2.00353 4.41288 1.84624 4.96018 1.80864 5.52202C1.77104 6.08385 1.854 6.64723 2.05195 7.17438C2.2499 7.70153 2.55828 8.18026 2.95639 8.57848L3.04423 8.66733Z" fill="#524336"/>
</svg>
