<svg width="259" height="50" viewBox="0 0 259 50" fill="none" xmlns="http://www.w3.org/2000/svg">
<path d="M16 7.5V1H243V7.5V16.25V16.8244L243.496 17.1138L257.015 25L243.496 32.8862L243 33.1756V33.75V42.5V49H16V42.5V33.75V33.1756L15.5039 32.8862L1.98463 25L15.5039 17.1138L16 16.8244V16.25V7.5Z" fill="#BB8C5F" stroke="#BB8C5F" stroke-width="2"/>
<path d="M55.5 30H44.3V32.2H42.8V28.4H44.6L49.9 15.3L55.2 28.4H57V32.2H55.5V30ZM49.9 19.16L46.38 28.4H53.42L49.9 19.16ZM58.5984 25.4C58.5984 24.4667 58.8051 23.64 59.2184 22.92C59.6451 22.2 60.2184 21.6333 60.9384 21.22C61.6584 20.8067 62.4651 20.6 63.3584 20.6C64.2651 20.6 65.0718 20.8067 65.7784 21.22C66.4984 21.6333 67.0651 22.2 67.4784 22.92C67.9051 23.64 68.1184 24.4667 68.1184 25.4C68.1184 26.32 67.9051 27.1467 67.4784 27.88C67.0651 28.6 66.4984 29.1667 65.7784 29.58C65.0718 29.9933 64.2651 30.2 63.3584 30.2C62.4651 30.2 61.6584 29.9933 60.9384 29.58C60.2184 29.1667 59.6451 28.6 59.2184 27.88C58.8051 27.1467 58.5984 26.32 58.5984 25.4ZM60.2184 25.4C60.2184 26.04 60.3518 26.6067 60.6184 27.1C60.8984 27.5933 61.2718 27.9867 61.7384 28.28C62.2184 28.56 62.7584 28.7 63.3584 28.7C63.9584 28.7 64.4918 28.56 64.9584 28.28C65.4384 27.9867 65.8118 27.5933 66.0784 27.1C66.3584 26.6067 66.4984 26.04 66.4984 25.4C66.4984 24.76 66.3584 24.1933 66.0784 23.7C65.8118 23.1933 65.4384 22.8 64.9584 22.52C64.4918 22.24 63.9584 22.1 63.3584 22.1C62.7584 22.1 62.2184 22.24 61.7384 22.52C61.2718 22.8 60.8984 23.1933 60.6184 23.7C60.3518 24.1933 60.2184 24.76 60.2184 25.4ZM69.5164 24.2C69.5164 22.9467 69.6364 21.84 69.8764 20.88C70.1164 19.92 70.5364 19.1067 71.1364 18.44C71.7497 17.7733 72.5897 17.2533 73.6564 16.88C74.5631 16.5733 75.2364 16.2067 75.6764 15.78C76.1297 15.34 76.4031 14.88 76.4964 14.4H78.0764C77.9831 15.2933 77.5631 16.06 76.8164 16.7C76.0697 17.34 75.1497 17.8333 74.0564 18.18C73.2831 18.4333 72.6764 18.8 72.2364 19.28C71.7964 19.76 71.4764 20.3067 71.2764 20.92C71.0764 21.52 70.9631 22.1333 70.9364 22.76C71.2564 22.0667 71.7031 21.5333 72.2764 21.16C72.8631 20.7867 73.5297 20.6 74.2764 20.6C75.1831 20.6 75.9897 20.8067 76.6964 21.22C77.4164 21.6333 77.9831 22.2 78.3964 22.92C78.8231 23.64 79.0364 24.4667 79.0364 25.4C79.0364 26.32 78.8231 27.1467 78.3964 27.88C77.9831 28.6 77.4164 29.1667 76.6964 29.58C75.9897 29.9933 75.1831 30.2 74.2764 30.2C73.3831 30.2 72.5764 29.98 71.8564 29.54C71.1364 29.0867 70.5631 28.4133 70.1364 27.52C69.7231 26.6267 69.5164 25.52 69.5164 24.2ZM71.1164 25.4C71.1164 26.04 71.2564 26.6067 71.5364 27.1C71.8164 27.5933 72.1897 27.9867 72.6564 28.28C73.1364 28.56 73.6764 28.7 74.2764 28.7C74.8764 28.7 75.4097 28.56 75.8764 28.28C76.3564 27.9867 76.7297 27.5933 76.9964 27.1C77.2764 26.6067 77.4164 26.04 77.4164 25.4C77.4164 24.76 77.2764 24.1933 76.9964 23.7C76.7297 23.1933 76.3564 22.8 75.8764 22.52C75.4097 22.24 74.8764 22.1 74.2764 22.1C73.8097 22.1 73.3297 22.2267 72.8364 22.48C72.3564 22.7333 71.9497 23.1067 71.6164 23.6C71.2831 24.0933 71.1164 24.6933 71.1164 25.4ZM81.9544 22.96L81.1744 21.74C81.521 21.4867 81.9877 21.2333 82.5744 20.98C83.161 20.7267 83.8677 20.6 84.6944 20.6C85.7477 20.6 86.601 20.8467 87.2544 21.34C87.9077 21.82 88.2344 22.5067 88.2344 23.4V30H86.6344V28.68C86.3544 29.1733 85.9344 29.5533 85.3744 29.82C84.8144 30.0733 84.1877 30.2 83.4944 30.2C82.921 30.2 82.3944 30.0933 81.9144 29.88C81.4344 29.6667 81.0477 29.3533 80.7544 28.94C80.4744 28.5133 80.3344 27.9867 80.3344 27.36C80.3344 26.3867 80.681 25.6333 81.3744 25.1C82.081 24.5533 83.041 24.28 84.2544 24.28C84.7877 24.28 85.2544 24.3467 85.6544 24.48C86.0544 24.6133 86.381 24.7667 86.6344 24.94V23.4C86.6344 22.9333 86.4344 22.5867 86.0344 22.36C85.6477 22.12 85.201 22 84.6944 22C84.041 22 83.4744 22.12 82.9944 22.36C82.5277 22.6 82.181 22.8 81.9544 22.96ZM81.9544 27.3C81.9544 27.7933 82.141 28.1667 82.5144 28.42C82.901 28.66 83.361 28.78 83.8944 28.78C84.6944 28.78 85.3477 28.6 85.8544 28.24C86.3744 27.8667 86.6344 27.2533 86.6344 26.4V26.04C85.9544 25.68 85.1877 25.5 84.3344 25.5C83.521 25.5 82.921 25.66 82.5344 25.98C82.1477 26.3 81.9544 26.74 81.9544 27.3ZM90.9414 20.8H94.3414C94.9147 20.8 95.4347 20.8867 95.9014 21.06C96.3814 21.22 96.7681 21.4867 97.0614 21.86C97.3547 22.22 97.5014 22.7 97.5014 23.3C97.5014 23.82 97.3614 24.2467 97.0814 24.58C96.8014 24.9133 96.4347 25.1667 95.9814 25.34C96.5547 25.46 97.0147 25.6867 97.3614 26.02C97.7214 26.3533 97.9014 26.8467 97.9014 27.5C97.9014 28.1933 97.6681 28.7867 97.2014 29.28C96.7481 29.76 95.9947 30 94.9414 30H90.9414V20.8ZM94.3414 22.2H92.5414V24.66H94.3414C94.8214 24.66 95.2014 24.54 95.4814 24.3C95.7614 24.06 95.9014 23.76 95.9014 23.4C95.9014 23.04 95.7614 22.7533 95.4814 22.54C95.2014 22.3133 94.8214 22.2 94.3414 22.2ZM94.5414 26.04H92.5414V28.6H94.5414C95.1414 28.6 95.5814 28.4733 95.8614 28.22C96.1547 27.9667 96.3014 27.66 96.3014 27.3C96.3014 26.94 96.1547 26.64 95.8614 26.4C95.5814 26.16 95.1414 26.04 94.5414 26.04ZM101.704 20.8V26.76L107.804 20.1V30H106.204V24.04L100.104 30.7V20.8H101.704ZM109.502 20.8H114.902V22.3H113.002V30H111.402V22.3H109.502V20.8ZM116.508 20.8H118.108V24.28H120.308C121.254 24.28 122.048 24.5133 122.688 24.98C123.341 25.4333 123.668 26.1533 123.668 27.14C123.668 28.1267 123.341 28.8533 122.688 29.32C122.048 29.7733 121.254 30 120.308 30H116.508V20.8ZM120.308 25.68H118.108V28.6H120.308C120.894 28.6 121.334 28.4733 121.628 28.22C121.921 27.9533 122.068 27.5933 122.068 27.14C122.068 26.6733 121.921 26.3133 121.628 26.06C121.334 25.8067 120.894 25.68 120.308 25.68ZM132.172 20.8H135.572C136.145 20.8 136.665 20.8867 137.132 21.06C137.612 21.22 137.999 21.4867 138.292 21.86C138.585 22.22 138.732 22.7 138.732 23.3C138.732 23.82 138.592 24.2467 138.312 24.58C138.032 24.9133 137.665 25.1667 137.212 25.34C137.785 25.46 138.245 25.6867 138.592 26.02C138.952 26.3533 139.132 26.8467 139.132 27.5C139.132 28.1933 138.899 28.7867 138.432 29.28C137.979 29.76 137.225 30 136.172 30H132.172V20.8ZM135.572 22.2H133.772V24.66H135.572C136.052 24.66 136.432 24.54 136.712 24.3C136.992 24.06 137.132 23.76 137.132 23.4C137.132 23.04 136.992 22.7533 136.712 22.54C136.432 22.3133 136.052 22.2 135.572 22.2ZM135.772 26.04H133.772V28.6H135.772C136.372 28.6 136.812 28.4733 137.092 28.22C137.385 27.9667 137.532 27.66 137.532 27.3C137.532 26.94 137.385 26.64 137.092 26.4C136.812 26.16 136.372 26.04 135.772 26.04ZM147.13 20.8H148.73V24.02L152.13 20.8H154.13L150.13 24.6L154.53 30H152.53L148.73 25.34V30H147.13V20.8ZM154.946 25.4C154.946 24.4667 155.153 23.64 155.566 22.92C155.993 22.2 156.566 21.6333 157.286 21.22C158.006 20.8067 158.813 20.6 159.706 20.6C160.613 20.6 161.419 20.8067 162.126 21.22C162.846 21.6333 163.413 22.2 163.826 22.92C164.253 23.64 164.466 24.4667 164.466 25.4C164.466 26.32 164.253 27.1467 163.826 27.88C163.413 28.6 162.846 29.1667 162.126 29.58C161.419 29.9933 160.613 30.2 159.706 30.2C158.813 30.2 158.006 29.9933 157.286 29.58C156.566 29.1667 155.993 28.6 155.566 27.88C155.153 27.1467 154.946 26.32 154.946 25.4ZM156.566 25.4C156.566 26.04 156.699 26.6067 156.966 27.1C157.246 27.5933 157.619 27.9867 158.086 28.28C158.566 28.56 159.106 28.7 159.706 28.7C160.306 28.7 160.839 28.56 161.306 28.28C161.786 27.9867 162.159 27.5933 162.426 27.1C162.706 26.6067 162.846 26.04 162.846 25.4C162.846 24.76 162.706 24.1933 162.426 23.7C162.159 23.1933 161.786 22.8 161.306 22.52C160.839 22.24 160.306 22.1 159.706 22.1C159.106 22.1 158.566 22.24 158.086 22.52C157.619 22.8 157.246 23.1933 156.966 23.7C156.699 24.1933 156.566 24.76 156.566 25.4ZM168.164 34.4H166.564V20.8H168.164V22.38C168.497 21.8067 168.931 21.3667 169.464 21.06C170.011 20.7533 170.624 20.6 171.304 20.6C172.144 20.6 172.904 20.7933 173.584 21.18C174.277 21.5667 174.831 22.12 175.244 22.84C175.657 23.5467 175.864 24.4 175.864 25.4C175.864 26.3867 175.657 27.24 175.244 27.96C174.831 28.68 174.277 29.2333 173.584 29.62C172.904 30.0067 172.144 30.2 171.304 30.2C170.624 30.2 170.011 30.0467 169.464 29.74C168.931 29.4333 168.497 28.9933 168.164 28.42V34.4ZM174.244 25.4C174.244 24.6933 174.097 24.0933 173.804 23.6C173.524 23.1067 173.144 22.7333 172.664 22.48C172.197 22.2267 171.677 22.1 171.104 22.1C170.637 22.1 170.177 22.2267 169.724 22.48C169.271 22.7333 168.897 23.1067 168.604 23.6C168.311 24.0933 168.164 24.6933 168.164 25.4C168.164 26.1067 168.311 26.7067 168.604 27.2C168.897 27.6933 169.271 28.0667 169.724 28.32C170.177 28.5733 170.637 28.7 171.104 28.7C171.677 28.7 172.197 28.5733 172.664 28.32C173.144 28.0667 173.524 27.6933 173.804 27.2C174.097 26.7067 174.244 26.1067 174.244 25.4ZM181.49 30.2C180.41 30.2 179.544 29.9067 178.89 29.32C178.25 28.7333 177.877 27.9933 177.77 27.1H179.39C179.484 27.54 179.684 27.9333 179.99 28.28C180.297 28.6267 180.797 28.8 181.49 28.8C182.117 28.8 182.61 28.6667 182.97 28.4C183.33 28.1333 183.51 27.7733 183.51 27.32C183.51 26.8533 183.324 26.4867 182.95 26.22C182.577 25.94 182.037 25.8 181.33 25.8V24.4C181.944 24.4 182.384 24.2867 182.65 24.06C182.917 23.82 183.05 23.5333 183.05 23.2C183.05 22.84 182.917 22.56 182.65 22.36C182.384 22.1467 182.01 22.04 181.53 22.04C180.917 22.04 180.47 22.2067 180.19 22.54C179.924 22.86 179.79 23.1733 179.79 23.48H178.17C178.17 22.96 178.317 22.48 178.61 22.04C178.904 21.6 179.304 21.2533 179.81 21C180.317 20.7333 180.89 20.6 181.53 20.6C182.13 20.6 182.67 20.7133 183.15 20.94C183.63 21.1667 184.004 21.4667 184.27 21.84C184.55 22.2133 184.69 22.6267 184.69 23.08C184.69 23.9733 184.21 24.6267 183.25 25.04C183.824 25.2133 184.27 25.4867 184.59 25.86C184.924 26.2333 185.09 26.7133 185.09 27.3C185.09 27.9 184.924 28.42 184.59 28.86C184.27 29.2867 183.837 29.62 183.29 29.86C182.744 30.0867 182.144 30.2 181.49 30.2ZM189.184 20.8V26.76L195.284 20.1V30H193.684V24.04L187.584 30.7V20.8H189.184ZM198.383 20.8H199.983V24.4H205.083V20.8H206.683V30H205.083V25.9H199.983V30H198.383V20.8ZM216.991 20.8L210.991 34.4H209.191L211.711 28.7L208.191 20.8H210.091L212.671 27.14L215.191 20.8H216.991Z" fill="#FAF6F2"/>
</svg>
